<svg width="97" height="20" viewBox="0 0 97 20" fill="none" xmlns="http://www.w3.org/2000/svg">
<path d="M94.0208 11.4168C93.8867 11.8836 93.6207 12.3017 93.2549 12.6212C92.8891 12.9407 92.4389 13.1479 91.9583 13.218C91.5825 13.2726 91.1996 13.2506 90.8324 13.1534C90.4653 13.0563 90.1216 12.8859 89.822 12.6526C89.5223 12.4193 89.2729 12.1279 89.0887 11.7958C88.9045 11.4637 88.7893 11.0978 88.75 10.7201C88.7196 10.3409 88.7681 9.95953 88.8927 9.60006C89.0172 9.2406 89.2149 8.91087 89.4734 8.63173C89.7318 8.3526 90.0454 8.13012 90.3942 7.97837C90.7431 7.82662 91.1196 7.7489 91.5 7.75012C91.8565 7.75062 92.2096 7.81906 92.5404 7.95179C92.5925 7.97517 92.6515 7.97827 92.7057 7.96047C92.76 7.94266 92.8056 7.90524 92.8338 7.85554L93.4938 6.64095C93.508 6.61298 93.5165 6.58247 93.5189 6.55119C93.5213 6.5199 93.5175 6.48845 93.5077 6.45864C93.4979 6.42884 93.4823 6.40125 93.4618 6.37748C93.4413 6.35371 93.4164 6.33422 93.3883 6.32012C92.6796 5.99925 91.9009 5.86405 91.1255 5.92727C90.3501 5.99048 89.6036 6.25003 88.9562 6.68146C88.3088 7.1129 87.7819 7.70202 87.4251 8.39334C87.0683 9.08465 86.8933 9.85542 86.9167 10.633C86.9618 11.788 87.4366 12.8845 88.2479 13.7077C89.0593 14.5309 90.1488 15.0215 91.3029 15.0835C92.512 15.1371 93.6932 14.7103 94.5887 13.8963C95.4843 13.0823 96.0216 11.9471 96.0833 10.7385V9.82179C96.0822 9.76137 96.0577 9.70376 96.0149 9.66104C95.9722 9.61831 95.9146 9.59379 95.8542 9.59262H91.7292C91.6684 9.59262 91.6101 9.61676 91.5671 9.65974C91.5242 9.70272 91.5 9.76101 91.5 9.82179V11.1968C91.5 11.2576 91.5242 11.3159 91.5671 11.3588C91.6101 11.4018 91.6684 11.426 91.7292 11.426H94.0208" fill="#AAAAAA"/>
<path d="M67.9438 8.85011C67.5925 8.84891 67.2444 8.91698 66.9194 9.05044C66.5945 9.1839 66.299 9.38012 66.05 9.62788C65.801 9.87564 65.6032 10.1701 65.4681 10.4943C65.333 10.8186 65.2631 11.1663 65.2625 11.5176V14.2126C65.2625 14.322 65.306 14.4269 65.3833 14.5043C65.4607 14.5817 65.5656 14.6251 65.675 14.6251H66.6375C66.7469 14.6251 66.8518 14.5817 66.9292 14.5043C67.0066 14.4269 67.05 14.322 67.05 14.2126V11.5176C67.0499 11.3927 67.0762 11.2691 67.127 11.155C67.1779 11.0409 67.2522 10.9388 67.3452 10.8553C67.4382 10.7718 67.5477 10.7089 67.6666 10.6706C67.7856 10.6323 67.9112 10.6195 68.0354 10.633C68.2582 10.6611 68.4629 10.7699 68.6107 10.9389C68.7586 11.1078 68.8393 11.3252 68.8375 11.5497V14.2126C68.8375 14.322 68.881 14.4269 68.9583 14.5043C69.0357 14.5817 69.1406 14.6251 69.25 14.6251H70.2125C70.3219 14.6251 70.4268 14.5817 70.5042 14.5043C70.5816 14.4269 70.625 14.322 70.625 14.2126V11.5176C70.6244 11.1663 70.5545 10.8186 70.4194 10.4943C70.2843 10.1701 70.0866 9.87564 69.8375 9.62788C69.5885 9.38012 69.293 9.1839 68.9681 9.05044C68.6431 8.91698 68.2951 8.84891 67.9438 8.85011Z" fill="#AAAAAA"/>
<path d="M64.025 9.26245H62.7875C62.5597 9.26245 62.375 9.44713 62.375 9.67495V14.2125C62.375 14.4403 62.5597 14.625 62.7875 14.625H64.025C64.2528 14.625 64.4375 14.4403 64.4375 14.2125V9.67495C64.4375 9.44713 64.2528 9.26245 64.025 9.26245Z" fill="#AAAAAA"/>
<path d="M63.4062 8.4375C63.9758 8.4375 64.4375 7.97579 64.4375 7.40625C64.4375 6.83671 63.9758 6.375 63.4062 6.375C62.8367 6.375 62.375 6.83671 62.375 7.40625C62.375 7.97579 62.8367 8.4375 63.4062 8.4375Z" fill="#AAAAAA"/>
<path d="M38.7033 14.1666C39.3811 14.1893 40.0565 14.0759 40.6896 13.8331C41.3228 13.5903 41.9008 13.223 42.3897 12.753C42.8785 12.283 43.2681 11.7198 43.5355 11.0966C43.8029 10.4735 43.9427 9.80305 43.9467 9.12495C44.2572 8.7406 44.4879 8.29804 44.625 7.82328C44.6352 7.78577 44.6344 7.7461 44.6226 7.70905C44.6108 7.672 44.5886 7.63915 44.5585 7.61445C44.5285 7.58975 44.492 7.57426 44.4534 7.56984C44.4147 7.56542 44.3757 7.57226 44.3408 7.58953C44.1783 7.66775 43.9954 7.69301 43.8178 7.66177C43.6402 7.63052 43.4769 7.54434 43.3508 7.41537C43.1899 7.23917 42.9953 7.09707 42.7785 6.99747C42.5617 6.89787 42.327 6.84281 42.0886 6.83554C41.8501 6.82828 41.6125 6.86896 41.39 6.95517C41.1676 7.04138 40.9646 7.17138 40.7933 7.33745C40.5587 7.56463 40.3869 7.84862 40.2946 8.16184C40.2022 8.47506 40.1924 8.80684 40.2662 9.12495C38.7308 9.21662 37.6767 8.48787 36.8333 7.4887C36.808 7.46001 36.7748 7.43932 36.7379 7.42915C36.701 7.41898 36.662 7.41978 36.6255 7.43144C36.5891 7.44311 36.5568 7.46514 36.5327 7.49484C36.5085 7.52454 36.4935 7.56063 36.4896 7.5987C36.3289 8.48989 36.4448 9.40891 36.8217 10.2323C37.1986 11.0557 37.8184 11.7441 38.5979 12.2049C38.0752 12.8044 37.3413 13.1788 36.5492 13.2499C36.5067 13.257 36.4675 13.2771 36.4371 13.3075C36.4067 13.3379 36.3865 13.3771 36.3795 13.4195C36.3724 13.4619 36.3788 13.5055 36.3977 13.5442C36.4166 13.5828 36.4471 13.6145 36.485 13.6349C37.1741 13.9793 37.933 14.1612 38.7033 14.1666Z" fill="#AAAAAA"/>
<circle cx="10" cy="10" r="10" fill="#F25822"/>
<path d="M11.7917 6.60505C11.7917 6.54427 11.7675 6.48598 11.7245 6.443C11.6816 6.40002 11.6233 6.37588 11.5625 6.37588H10.4167C9.83968 6.34714 9.27477 6.54793 8.84537 6.93439C8.41597 7.32086 8.15698 7.86156 8.125 8.43838V9.67588H6.97917C6.91839 9.67588 6.8601 9.70002 6.81712 9.743C6.77414 9.78598 6.75 9.84427 6.75 9.90505V11.0967C6.75 11.1575 6.77414 11.2158 6.81712 11.2588C6.8601 11.3017 6.91839 11.3259 6.97917 11.3259H8.125V14.3967C8.125 14.4575 8.14914 14.5158 8.19212 14.5588C8.2351 14.6017 8.29339 14.6259 8.35417 14.6259H9.72917C9.78994 14.6259 9.84823 14.6017 9.89121 14.5588C9.93419 14.5158 9.95833 14.4575 9.95833 14.3967V11.3259H11.1592C11.2101 11.3266 11.2599 11.3103 11.3006 11.2796C11.3412 11.2489 11.3705 11.2055 11.3837 11.1563L11.7137 9.96463C11.7229 9.93077 11.7241 9.89527 11.7173 9.86086C11.7106 9.82645 11.696 9.79405 11.6748 9.76616C11.6535 9.73826 11.6261 9.71562 11.5947 9.69997C11.5634 9.68432 11.5288 9.67608 11.4937 9.67588H9.95833V8.43838C9.96973 8.32493 10.023 8.21981 10.1078 8.14353C10.1925 8.06726 10.3026 8.02531 10.4167 8.02588H11.5625C11.6233 8.02588 11.6816 8.00173 11.7245 7.95876C11.7675 7.91578 11.7917 7.85749 11.7917 7.79671V6.60505Z" fill="white"/>
</svg>
